' SPDX-FileCopyrightText: Copyright 2022 Arm Limited and/or its affiliates <open-source-office@arm.com>
' SPDX-License-Identifier: CC-BY-SA-4.0 AND LicenseRef-Patent-license

@startuml

!include atg-spec.pumh
!include atg-dataflow.pumh

skinparam RectangleborderThickness 0
skinparam RectanglefontColor white
skinparam DatabaseBorderColor #ArmMidGray
skinparam InterfaceBorderColor #ArmMidGray

rectangle "Firmware creator" as creator #ArmDarkBlue
cloud Internet {
    rectangle "Update server" as server #ArmMidGray
}
interface "MQTT\n CoAP\nHTTPS\n      ..." as tls #ArmLightGray

dfd_tb("Device ") {
    rectangle "Update client" as client #ArmMidGray
    interface "**  Firmware**\n**Update API**" as api  #ArmGreen
    rectangle "Update service" as service #ArmMidBlue
    database "Firmware store" as store #ArmLightGray
    rectangle "Bootloader" as bootloader #ArmMidBlue
}

creator -> server
tls -left-> server
tls -right-> client
client - api
api -> service
service --> store
service -[hidden]right-> bootloader
bootloader --> store

@enduml
